<svg width="1706" height="1206" viewBox="0 0 1706 1206" fill="none" xmlns="http://www.w3.org/2000/svg">
<path d="M783.74 348.853C877.454 304.861 980.453 312.101 1075.91 346.492C1090.33 351.688 1105.19 357.26 1118.9 364.147L1123.08 365.8L1131.3 369.551C1104.57 370.741 1073.07 373.119 1053.81 394.083C1036.22 413.238 1029.13 444.64 1020.44 468.689C1017.81 475.994 1015.14 484.388 1010.92 490.953C998.633 523.298 971.983 565.379 946.547 588.898C928.651 607.773 900.24 632.67 876.469 643.184C819.283 676.887 747.999 683.103 684.417 666.7C676.677 664.755 669.062 662.402 661.573 659.641C656.268 669.089 651.106 678.436 646.918 688.437C643.776 695.937 641.344 703.819 638.093 711.234L638.041 713.6C630.845 728.414 628.249 773.01 619.822 781.462C618.461 782.829 617.66 782.436 615.915 782.34C615.072 781.794 614.339 781.32 613.799 780.45C606.901 769.347 618.411 726.056 621.673 713.738L622.898 711.24C628.373 688.365 640.46 665.685 649.997 644.152C640.903 617.39 633.934 590.046 632.478 561.709C629.528 504.31 650.651 457.939 688.589 415.856C700.052 398.003 739.267 370.841 757.939 361.884C766.286 357.146 774.813 352.404 783.74 348.853Z" fill="#BBED6E"/>
<path d="M828.507 448.833L830.666 449.563C828.8 452.382 807.973 468.075 803.592 471.836C793.376 480.605 783.638 489.527 774.273 499.211C774.447 506.508 773.088 535.165 770.657 540.9C774.074 539.479 776.614 536.329 779.997 534.54C782.934 532.986 785.353 530.601 788.372 529.144C799.174 523.934 809.853 525.511 821.089 523.619C823.534 523.208 825.315 523.726 827.304 525.225C827.557 525.417 827.8 525.62 828.049 525.816C825.887 525.571 822.888 524.625 821.09 525.844L821.501 526.684C822.617 529 823.304 530.568 822.923 533.217C821.397 536.384 818.594 537.79 815.619 539.408L814.905 539.442C815.197 539.641 815.483 539.848 815.779 540.04C816.728 540.651 817.336 540.759 818.427 540.892C823.532 541.51 828.355 544.757 831.416 548.761C835.567 554.194 837.047 560.642 836.045 567.369C834.054 580.735 824.163 593.615 813.473 601.389C812.575 602.04 811.666 602.676 810.747 603.296C817.101 602.25 822.829 599.36 828.55 596.55L826.236 600.047C826.923 601.921 827.286 602.046 828.837 603.191C826.077 605.006 823.325 606.979 820.458 608.613C819.369 610.9 818.17 611.44 815.793 612.329C806.784 615.699 788.859 618.086 779.995 613.784C775.566 611.634 770.838 608.59 766.114 607.279L765.972 608.213C765.833 609.084 765.61 609.808 765.33 610.637C763.248 616.792 764.015 624.907 762.746 631.385C761.818 636.12 760.05 653.305 760.677 657.532C769.022 662.688 804.573 649.436 810.507 653.36C803.201 656.101 793.346 656.743 785.602 657.79C745.383 663.231 705.738 662.256 667.517 647.63C670.856 640.09 674.384 632.639 678.103 625.279C681.822 617.918 685.725 610.657 689.814 603.496C693.903 596.334 698.172 589.282 702.621 582.338C707.07 575.394 711.693 568.568 716.49 561.86C724.211 551.158 733.123 541.321 740.774 530.587C749.752 522.861 757.923 511.81 766.164 503.155C775.814 493.285 785.843 483.816 796.25 474.748C806.657 465.68 817.409 457.041 828.507 448.833Z" fill="url(#paint0_linear_7_2)"/>
<path d="M814.905 539.442C815.197 539.641 815.483 539.848 815.779 540.04C816.728 540.651 817.336 540.759 818.427 540.892C823.532 541.51 828.355 544.757 831.416 548.761C835.567 554.194 837.047 560.642 836.045 567.369C834.054 580.734 824.163 593.615 813.473 601.389C812.575 602.04 811.666 602.676 810.747 603.296C802.19 605.203 793.932 605.871 785.354 603.564C774.257 600.579 766.054 593.599 760.433 583.712C760.357 574.642 762.733 567.249 767.899 559.699C770.521 555.869 773.796 552.106 778.546 551.172C777.572 552.405 776.539 553.112 776.594 554.727C785.372 554.232 803.783 545.974 811.46 541.732C810.598 541.479 809.905 541.205 809.098 540.791C808.829 540.653 808.563 540.506 808.296 540.364L814.905 539.442Z" fill="url(#paint1_linear_7_2)"/>
<path d="M766.162 548.132C772.329 541.534 779.363 535.896 787.419 531.75C792.669 529.047 803.471 524.548 809.273 526.364C807.063 527.943 805.709 528.853 804.728 531.436C804.561 534.992 806.248 537.581 808.296 540.364C808.563 540.506 808.829 540.653 809.098 540.791C809.905 541.205 810.598 541.479 811.46 541.732C803.783 545.974 785.372 554.232 776.594 554.727C776.539 553.112 777.572 552.405 778.546 551.172C773.796 552.106 770.521 555.869 767.899 559.699C762.733 567.249 760.357 574.642 760.433 583.712C759.661 581.973 758.854 580.186 758.376 578.34C755.55 567.42 760.839 557.298 766.162 548.132Z" fill="#A3E624"/>
<path d="M791.611 532.22C793.25 532.165 795.668 531.939 797.197 532.586C798.76 533.248 798.819 533.932 799.404 535.387C798.685 538.125 797.138 539.233 795.062 540.941C792.982 541.325 791.369 541.344 789.279 541.019C787.482 539.606 787.388 539.793 787.089 537.376C788.011 534.781 789.444 533.829 791.611 532.22Z" fill="#E2FCB3"/>
<path d="M820.458 608.613C811.768 611.996 802.58 614.61 793.17 614.183C781.632 613.66 770.06 609.57 762.174 600.859C761.765 600.416 761.369 599.964 760.984 599.501C760.599 599.038 760.226 598.566 759.865 598.084C759.504 597.602 759.156 597.112 758.819 596.612C758.484 596.112 758.161 595.605 757.85 595.089C757.541 594.572 757.244 594.048 756.961 593.518C756.678 592.986 756.409 592.448 756.153 591.903C755.897 591.358 755.656 590.807 755.428 590.249C755.2 589.692 754.987 589.129 754.788 588.561C754.589 587.993 754.405 587.42 754.236 586.842C754.066 586.265 753.912 585.683 753.772 585.097C753.632 584.512 753.507 583.923 753.397 583.331C753.288 582.739 753.193 582.145 753.114 581.548C753.035 580.951 752.971 580.353 752.921 579.753C752.873 579.153 752.839 578.552 752.821 577.951C752.803 577.348 752.8 576.747 752.813 576.145C752.826 575.543 752.853 574.942 752.897 574.341C753.576 564.41 758.673 554.639 766.162 548.132C760.839 557.298 755.55 567.42 758.376 578.34C758.854 580.186 759.661 581.973 760.433 583.712C766.054 593.599 774.257 600.578 785.354 603.564C793.932 605.871 802.19 605.203 810.747 603.296C817.101 602.25 822.829 599.36 828.55 596.55L826.236 600.047C826.923 601.921 827.286 602.046 828.837 603.191C826.077 605.006 823.325 606.979 820.458 608.613Z" fill="url(#paint2_linear_7_2)"/>
<path d="M809.273 526.364C811.88 526.109 812.525 525.602 814.67 527.232C816.231 529.854 817.038 534.985 816.248 537.994C816.128 538.449 815.814 539.012 815.619 539.408L814.905 539.442L808.296 540.364C806.248 537.581 804.561 534.992 804.728 531.436C805.709 528.853 807.063 527.943 809.273 526.364Z" fill="#E2FCB3"/>
<path d="M688.589 415.856C688.383 419.128 669.856 444.757 666.292 451.09C651.304 477.716 639.594 511.268 640.716 542.18C641.759 541.63 641.801 541.287 642.404 540.313C645.314 539.855 648.277 542.074 650.783 543.418C651.534 535.433 651.611 525.959 654.917 518.609C656.106 524.377 659.698 528.872 664.006 532.731C672.009 539.901 682.447 544.078 693.248 543.301C712.178 541.939 715.293 529.78 726.489 517.192C728.269 515.191 729.732 513.03 732.458 512.855C740.875 503.751 749.563 494.914 758.52 486.342C760.768 491.778 764.446 497.735 766.164 503.155C757.923 511.809 749.752 522.861 740.774 530.587C733.123 541.321 724.211 551.158 716.49 561.86C711.693 568.568 707.07 575.394 702.621 582.338C698.172 589.282 693.903 596.334 689.814 603.496C685.725 610.657 681.822 617.918 678.103 625.279C674.384 632.639 670.856 640.09 667.517 647.63C705.738 662.256 745.383 663.231 785.602 657.79C793.346 656.743 803.201 656.101 810.507 653.36C831.514 650.428 851.634 641.838 870.944 633.447C870.773 633.69 870.613 633.941 870.433 634.177C865.638 640.495 846.144 642.51 840.041 647.895L840.214 648.784C840.675 651.286 841.051 654.254 841.223 656.773C841.246 657.104 841.215 657.436 841.21 657.768C853.363 654.049 864.822 648.121 875.941 642.04L876.469 643.184C819.283 676.887 747.999 683.103 684.417 666.7C676.677 664.755 669.062 662.402 661.573 659.641C656.268 669.089 651.106 678.436 646.918 688.437C643.776 695.937 641.344 703.819 638.093 711.234L638.041 713.6C630.845 728.414 628.249 773.01 619.822 781.462C618.461 782.829 617.66 782.436 615.915 782.34C615.072 781.794 614.339 781.32 613.799 780.45C606.901 769.346 618.411 726.056 621.673 713.738L622.898 711.24C628.373 688.365 640.46 665.685 649.997 644.152C640.903 617.39 633.934 590.046 632.478 561.709C629.528 504.31 650.651 457.939 688.589 415.856Z" fill="url(#paint3_linear_7_2)"/>
<path d="M654.917 518.609C656.106 524.377 659.698 528.872 664.006 532.731C672.009 539.901 682.446 544.078 693.248 543.301C712.178 541.939 715.293 529.78 726.489 517.192C728.269 515.191 729.732 513.03 732.458 512.855L730.827 515.389C724.057 521.806 718.146 529.769 712.487 537.158C706.891 544.372 701.535 551.761 696.419 559.323C691.303 566.886 686.438 574.606 681.823 582.485C677.209 590.364 672.855 598.384 668.762 606.545C664.67 614.707 660.847 622.993 657.293 631.403C646.402 604.011 638.672 571.843 640.716 542.18C641.759 541.63 641.8 541.287 642.404 540.314C645.314 539.855 648.277 542.074 650.783 543.418C651.534 535.433 651.611 525.959 654.917 518.609Z" fill="url(#paint4_linear_7_2)"/>
<path d="M732.458 512.855C740.875 503.751 749.563 494.914 758.52 486.342C760.768 491.778 764.446 497.736 766.164 503.155C757.923 511.809 749.752 522.861 740.774 530.587C742.487 525.065 748.762 519.57 752.612 515.327C751.498 510.053 748.827 505.113 746.786 500.136C741.591 505.153 737.275 511.97 730.827 515.389L732.458 512.855Z" fill="#7CA364"/>
<path d="M783.74 348.853C877.454 304.861 980.453 312.101 1075.91 346.492C1090.33 351.688 1105.19 357.26 1118.9 364.147C1109.49 363.52 1099.34 359.557 1089.97 357.834C1068.34 353.859 1046.05 353.448 1024.17 354.876L1020.15 354.412C1023.54 353.275 1056.75 352.236 1059.41 353.128C1061.33 353.772 1062.4 354.237 1064.38 353.523C1062.85 351.21 1058.72 347.577 1056.09 346.803C1043.83 343.193 1009.81 345.211 995.381 345.145L868.671 344.386C853.596 344.26 838.517 343.704 823.43 343.543C817.396 343.478 811.203 342.93 805.185 343.373C798.523 343.866 790.84 346.623 784.949 349.648L784.256 350.009L783.74 348.853Z" fill="#8FD44A"/>
<path d="M758.52 486.342C787.304 456.625 824.375 430.545 860.111 409.774C865.507 406.638 871.333 404.189 876.836 401.236C885.836 396.405 896.685 389.532 906.586 387L906.776 387.734C900.522 391.965 892.66 392.843 886.63 397.211C876.615 404.469 863.834 407.083 854.48 415.429C855.455 419.138 856.472 422.587 858.081 426.076L859.368 426.122C873.321 415.845 890.018 409.139 904.815 400.207C907.69 398.472 918.571 393.371 921.131 393.937L921.221 395.082C917.21 400.161 881.756 415 873.521 419.214C857.772 427.273 842.601 438.211 828.507 448.833C817.409 457.041 806.657 465.68 796.25 474.748C785.843 483.816 775.814 493.285 766.164 503.155C764.446 497.736 760.768 491.778 758.52 486.342Z" fill="url(#paint5_linear_7_2)"/>
<path d="M688.589 415.856C700.052 398.002 739.267 370.841 757.939 361.884L758.211 363.651C745.417 376.433 730.404 387.024 717.245 399.512C685.455 429.679 660.341 473.967 654.84 517.835C654.808 518.092 654.892 518.351 654.917 518.609C651.611 525.959 651.534 535.433 650.783 543.417C648.277 542.074 645.314 539.855 642.404 540.313C641.801 541.287 641.759 541.63 640.716 542.18C639.594 511.268 651.304 477.716 666.292 451.09C669.856 444.757 688.383 419.128 688.589 415.856Z" fill="url(#paint6_linear_7_2)"/>
<path d="M942.286 582.023C946.083 577.042 950.986 572.481 955.222 567.811C963.118 559.107 970.835 550.155 977.824 540.702C984.815 531.049 991.482 521.174 997.825 511.078C1001.89 504.599 1005.78 496.573 1010.92 490.953C998.633 523.298 971.983 565.379 946.547 588.898C928.651 607.773 900.24 632.67 876.469 643.184L875.941 642.04C864.822 648.121 853.363 654.049 841.21 657.768C841.215 657.436 841.246 657.104 841.223 656.773C841.051 654.254 840.675 651.286 840.214 648.784L840.041 647.895C846.144 642.51 865.638 640.495 870.433 634.177C870.613 633.941 870.773 633.69 870.944 633.447C879.437 627.404 889.672 623.005 898.569 617.415C914.404 607.463 928.656 594.747 942.286 582.023Z" fill="#7CA364"/>
<path d="M942.286 582.023C946.083 577.042 950.986 572.481 955.222 567.811C963.118 559.107 970.835 550.155 977.824 540.702C984.815 531.049 991.482 521.174 997.825 511.078C1001.89 504.599 1005.78 496.573 1010.92 490.953C998.633 523.298 971.983 565.379 946.547 588.898C948.765 582.856 969.598 559.766 974.835 552.698C978.165 548.209 981.573 543.662 984.445 538.864C987.279 534.13 989.139 529.518 992.566 525.08L992.586 525.078L992.226 524.854C987.669 525.968 956.624 575.092 942.85 581.772C942.665 581.862 942.474 581.939 942.286 582.023Z" fill="#8FD44A"/>
<path d="M815.619 539.408C818.594 537.79 821.397 536.384 822.923 533.217C823.304 530.568 822.617 529 821.501 526.683L821.09 525.843C822.888 524.625 825.887 525.571 828.048 525.816C837.216 529.924 843.858 534.685 847.545 544.406C851.342 554.419 850.034 566.046 845.639 575.646C842.757 581.942 838.582 587.326 833.651 592.148C832.057 593.493 829.834 594.95 828.55 596.55C822.829 599.36 817.101 602.25 810.747 603.296C811.666 602.676 812.575 602.04 813.473 601.389C824.163 593.615 834.054 580.734 836.045 567.369C837.047 560.642 835.567 554.194 831.416 548.761C828.355 544.757 823.532 541.51 818.427 540.892C817.336 540.759 816.728 540.651 815.779 540.04C815.483 539.848 815.197 539.641 814.905 539.442L815.619 539.408Z" fill="#A3E624"/>
<path d="M1024.17 354.876C1046.05 353.448 1068.34 353.859 1089.97 357.834C1099.34 359.556 1109.49 363.52 1118.9 364.147L1123.08 365.8C1115.81 367.742 1104.61 365.015 1096.94 364.23C1082.39 362.739 1060.27 360.474 1046.17 363.615C1054.27 365.172 1063.6 364.458 1071.89 364.588C1048.07 364.847 1025.68 367.892 1002.1 370.63C1010.2 366.862 1025.05 366.526 1034.06 365.132L1033.76 364.275C1031.54 364.175 1028.99 364.361 1026.93 363.518C1036.46 363.316 1045.89 361.61 1055.33 361.434C1066.7 361.222 1079.02 363.024 1090.22 361.426C1091.43 361.254 1090.99 361.531 1091.65 360.645C1089.29 357.396 1084.78 358.725 1081.26 358.255C1075.76 357.521 1070.2 356.097 1064.67 355.843C1051.96 355.257 1036.28 358.395 1024.17 354.876Z" fill="#A3E624"/>
<path d="M833.651 592.148C834.617 593.942 835.357 594.548 834.74 596.672C833.973 599.313 830.904 601.492 828.837 603.191C827.286 602.046 826.923 601.921 826.236 600.047L828.55 596.55C829.834 594.95 832.057 593.493 833.651 592.148Z" fill="#8FD44A"/>
<path d="M1061.63 374.612L1061.76 374.578C1057.2 378.292 1051.59 380.626 1047.04 384.625C1043.43 387.783 1040.39 391.918 1037.44 395.679C1020.02 417.919 1018.77 437.596 1008.84 462.307C976.354 543.051 919.005 607.015 838.352 641.323L837.052 641.233C838.856 638.088 861.762 625.727 866.736 622.362C875.175 616.654 883.353 610.287 891.352 603.978C896.641 599.823 901.8 595.513 906.829 591.047C911.858 586.581 916.747 581.968 921.498 577.207C926.248 572.446 930.85 567.546 935.303 562.506C939.757 557.467 944.055 552.299 948.197 547C952.935 540.813 957.461 534.476 961.774 527.987C966.087 521.497 970.177 514.87 974.046 508.107C977.915 501.343 981.553 494.458 984.962 487.45C988.37 480.442 991.538 473.329 994.465 466.109C1003.63 443.153 1007.71 415.977 1023.61 396.457C1032.15 385.977 1048.1 376.061 1061.63 374.612Z" fill="#E2FCB3"/>
<path d="M875.287 522.561C881.016 517.331 888.021 512.91 895.674 511.2C898.862 510.489 902.787 509.798 905.656 511.597C902.585 512.399 898.471 513.158 896.732 516.109C896.176 517.052 896.621 517.491 896.925 518.441C899.038 519.841 901.108 520.553 903.687 520.111C905.465 519.807 907.3 518.875 908.369 517.377C909.522 515.762 909.317 514.862 908.947 513.017L909.582 511.94C914.074 512.618 918.632 516.129 921.391 519.671C924.214 523.296 925.261 528.424 924.509 532.898C923.25 540.375 917.675 546.603 911.55 550.681C909.967 551.746 908.319 552.698 906.605 553.537C904.051 555.85 898.686 558.183 895.248 558.415C892.569 559.26 889.631 559.579 886.824 559.554C880.564 559.499 874.464 557.492 870.14 552.793C869.93 552.565 869.726 552.331 869.528 552.091C869.33 551.852 869.139 551.608 868.954 551.358C868.769 551.109 868.59 550.855 868.418 550.597C868.247 550.338 868.082 550.075 867.923 549.809C867.766 549.541 867.615 549.27 867.471 548.995C867.326 548.72 867.19 548.441 867.061 548.16C866.931 547.878 866.81 547.592 866.695 547.303C866.581 547.015 866.473 546.723 866.374 546.429C866.275 546.135 866.184 545.839 866.1 545.541C866.016 545.241 865.94 544.94 865.872 544.637C865.804 544.335 865.744 544.031 865.692 543.724C865.64 543.418 865.595 543.111 865.559 542.802C865.523 542.494 865.495 542.185 865.475 541.876C865.455 541.566 865.443 541.256 865.439 540.945C865.435 540.635 865.44 540.325 865.452 540.015C865.464 539.705 865.485 539.395 865.513 539.086C866.126 531.983 870.12 527.058 875.287 522.561Z" fill="#A3E624"/>
<path d="M875.287 522.561C872.712 527.085 870.371 531.128 870.247 536.477L874.421 530.666L875.189 531.329C881.713 536.892 900.775 546.116 903.492 553.063C902.642 554.92 902.166 555.607 900.085 556.157C899.025 556.437 897.798 556.441 896.703 556.491L889.461 556.442L895.248 558.415C892.569 559.26 889.631 559.579 886.824 559.554C880.564 559.499 874.464 557.492 870.14 552.793C869.93 552.565 869.726 552.331 869.528 552.091C869.33 551.852 869.139 551.608 868.954 551.358C868.769 551.109 868.59 550.855 868.418 550.597C868.247 550.338 868.082 550.075 867.923 549.809C867.766 549.541 867.615 549.27 867.471 548.995C867.326 548.72 867.19 548.441 867.061 548.16C866.931 547.878 866.81 547.592 866.695 547.303C866.581 547.015 866.473 546.723 866.374 546.429C866.275 546.135 866.184 545.839 866.1 545.541C866.016 545.241 865.94 544.94 865.872 544.637C865.804 544.335 865.744 544.03 865.692 543.724C865.64 543.418 865.595 543.111 865.559 542.802C865.523 542.494 865.495 542.185 865.475 541.876C865.455 541.566 865.443 541.256 865.439 540.945C865.435 540.635 865.44 540.325 865.452 540.015C865.464 539.705 865.485 539.395 865.513 539.086C866.126 531.983 870.12 527.058 875.287 522.561Z" fill="#BBED6E"/>
<path d="M875.287 522.561C872.712 527.085 870.371 531.128 870.247 536.477L870.472 541.382C872.856 547.435 875.928 551.47 881.99 554.167C884.398 555.238 886.9 555.864 889.461 556.442L895.248 558.415C892.569 559.26 889.631 559.579 886.824 559.554C880.564 559.499 874.464 557.492 870.14 552.793C869.93 552.565 869.726 552.331 869.528 552.091C869.33 551.852 869.139 551.608 868.954 551.358C868.769 551.109 868.59 550.855 868.418 550.597C868.247 550.338 868.082 550.075 867.923 549.809C867.766 549.541 867.615 549.27 867.471 548.995C867.326 548.72 867.19 548.441 867.061 548.16C866.931 547.878 866.81 547.592 866.695 547.303C866.581 547.015 866.473 546.723 866.374 546.429C866.275 546.135 866.184 545.839 866.1 545.541C866.016 545.241 865.94 544.94 865.872 544.637C865.804 544.335 865.744 544.03 865.692 543.724C865.64 543.418 865.595 543.111 865.559 542.802C865.523 542.494 865.495 542.185 865.475 541.876C865.455 541.566 865.443 541.256 865.439 540.945C865.435 540.635 865.44 540.325 865.452 540.015C865.464 539.705 865.485 539.395 865.513 539.086C866.126 531.983 870.12 527.058 875.287 522.561Z" fill="#71B107"/>
<path fill-rule="evenodd" clip-rule="evenodd" d="M1121.93 788.428C1116.88 786.731 1112.04 785.689 1106.69 785.7C1100 786.496 1094.45 787.871 1090 793.451C1086.32 798.068 1084.78 804.07 1083.62 809.75C1082.48 809.181 1081.33 808.64 1080.16 808.126C1079 807.613 1077.82 807.128 1076.63 806.671C1075.44 806.214 1074.24 805.786 1073.04 805.387C1071.83 804.988 1070.61 804.618 1069.39 804.278C1068.16 803.938 1066.92 803.627 1065.68 803.346C1064.44 803.065 1063.19 802.814 1061.94 802.593C1060.68 802.372 1059.42 802.181 1058.16 802.021C1056.89 801.86 1055.63 801.73 1054.36 801.63C1053.09 801.531 1051.82 801.462 1050.54 801.424C1049.27 801.386 1048 801.378 1046.73 801.4C1045.45 801.424 1044.18 801.477 1042.91 801.561C1041.64 801.645 1040.37 801.76 1039.1 801.905C1037.84 802.05 1036.58 802.226 1035.32 802.431C1034.06 802.637 1032.81 802.873 1031.56 803.139C1030.32 803.405 1029.08 803.701 1027.85 804.027C1026.62 804.352 1025.4 804.707 1024.18 805.091C1012.84 808.718 1003.16 815.97 997.688 826.691C993.297 835.277 992.06 845.499 995.079 854.733C998.458 865.058 1005.9 871.001 1014.89 876.343C1007.47 882.04 1000.94 887.91 999.646 897.697C998.828 903.845 1000.78 910.359 1004.6 915.221C1006.41 917.533 1008.8 919.487 1011.07 921.342C1002.13 924.619 995.536 928.856 991.349 937.751C987.698 945.527 987.484 955.15 990.463 963.183C993.628 971.706 1000.33 977.152 1008.47 980.725C1025.69 988.278 1048.62 988.453 1067.01 985.124C1083.92 981.28 1101.36 973.6 1110.96 958.362C1116.54 949.49 1119.1 938.186 1116.65 927.871C1114.8 920.088 1110.69 913.398 1103.72 909.307C1096.5 905.075 1087.98 903.139 1079.74 902.302C1077.13 902.037 1073.08 902.007 1068.33 901.972C1051.56 901.848 1025.94 901.658 1023.24 890.899C1022.67 888.667 1023.23 886.369 1024.44 884.445C1025.58 882.633 1027.03 881.655 1028.87 880.647C1031.61 880.25 1034.33 880.763 1037.06 881.277L1037.06 881.278C1038.67 881.582 1040.29 881.887 1041.92 882.004C1060.74 883.357 1082.27 880.277 1094.29 864.168C1100.28 856.143 1103.49 845.261 1102.03 835.284C1101.01 828.35 1097.95 822.682 1094.1 816.945C1102.5 812.413 1109.9 811.817 1119.29 811.293L1121.93 788.428ZM1042.76 926.446C1037.45 926.41 1032.16 926.374 1027.01 926.048C1021.28 930.869 1016.89 936.46 1016.18 944.217C1015.67 949.698 1017.49 954.92 1021.06 959.059C1026.98 965.942 1036.03 968.362 1044.79 968.839C1054.87 969.388 1064.5 967.938 1073.71 963.838C1079.42 960.263 1084.55 956.366 1086.17 949.399C1087.19 945.006 1087.03 939.922 1084.48 936.074C1081.15 931.054 1075 929 1069.35 928.033C1060.78 926.569 1051.73 926.507 1042.76 926.446ZM1033.09 859.365C1030.91 857.631 1029.03 855.591 1027.68 853.138C1024.73 847.789 1023.91 842.016 1025.67 836.111C1027.45 830.199 1031.65 825.437 1037.11 822.644C1037.49 822.451 1037.88 822.267 1038.27 822.093C1038.67 821.919 1039.07 821.754 1039.47 821.6C1039.87 821.445 1040.28 821.301 1040.7 821.167C1041.11 821.032 1041.52 820.908 1041.94 820.794C1042.35 820.68 1042.77 820.577 1043.19 820.483C1043.61 820.39 1044.04 820.307 1044.47 820.235C1044.89 820.163 1045.31 820.1 1045.74 820.049C1046.17 819.998 1046.6 819.957 1047.04 819.928C1047.47 819.898 1047.89 819.878 1048.32 819.869C1048.76 819.861 1049.19 819.863 1049.62 819.875C1050.05 819.887 1050.48 819.91 1050.91 819.944C1051.34 819.978 1051.77 820.022 1052.2 820.078C1052.63 820.133 1053.06 820.198 1053.48 820.274C1053.91 820.35 1054.33 820.437 1054.75 820.534C1055.17 820.631 1055.59 820.738 1056.01 820.855C1056.42 820.973 1056.83 821.101 1057.24 821.239C1064.14 823.619 1068.25 828.576 1071.26 834.963C1071.5 835.164 1071.74 835.367 1071.99 835.564C1073.14 836.498 1074.99 837.397 1076.94 838.347C1080.37 840.016 1084.12 841.841 1085 844.291L1084.07 844.473C1079.18 845.445 1075.35 849.296 1071.33 853.341C1063.42 861.284 1054.78 869.976 1035.94 859.098C1036.36 858.662 1036.82 858.217 1037.29 857.76L1037.29 857.76C1039.08 856.015 1041.06 854.097 1041.77 851.867C1038.81 853.265 1034.91 856.617 1033.09 859.365Z" fill="#1B1B1B"/>
<path fill-rule="evenodd" clip-rule="evenodd" d="M917.549 800.527C916.504 800.591 915.461 800.68 914.422 800.795C913.39 800.909 912.362 801.048 911.337 801.212C910.312 801.376 909.292 801.565 908.276 801.779C907.261 801.993 906.251 802.232 905.247 802.495C904.243 802.758 903.247 803.046 902.257 803.358C901.267 803.67 900.286 804.006 899.312 804.366C898.339 804.726 897.375 805.11 896.42 805.517C895.466 805.924 894.522 806.355 893.588 806.808C892.655 807.261 891.733 807.737 890.822 808.236C889.912 808.734 889.014 809.254 888.129 809.797C887.245 810.339 886.373 810.902 885.516 811.487C884.659 812.072 883.817 812.677 882.989 813.303C882.161 813.929 881.35 814.575 880.554 815.241C879.757 815.907 878.978 816.592 878.215 817.296C877.453 817.999 876.708 818.721 875.98 819.461C875.253 820.202 874.544 820.959 873.854 821.734C873.164 822.509 872.493 823.3 871.842 824.108C871.19 824.915 870.558 825.739 869.947 826.578C869.335 827.416 868.745 828.269 868.176 829.136C867.606 830.003 867.058 830.884 866.532 831.778C866.005 832.673 865.5 833.579 865.019 834.498C864.536 835.417 864.077 836.347 863.64 837.288C863.203 838.229 862.789 839.181 862.399 840.142C862.009 841.104 861.643 842.075 861.3 843.054C860.957 844.034 860.638 845.021 860.344 846.016C860.05 847.01 859.78 848.012 859.535 849.021C859.288 850.029 859.068 851.042 858.872 852.061C858.676 853.081 858.505 854.104 858.359 855.131C858.213 856.159 858.092 857.189 857.997 858.222C857.902 859.255 857.831 860.29 857.787 861.327C857.742 862.364 857.722 863.401 857.728 864.439C857.734 865.476 857.765 866.513 857.822 867.55C857.878 868.585 857.96 869.619 858.067 870.652C858.174 871.684 858.306 872.713 858.463 873.738C858.621 874.764 858.804 875.785 859.011 876.802C859.218 877.819 859.45 878.829 859.707 879.835C859.964 880.84 860.245 881.839 860.551 882.83C860.856 883.822 861.186 884.806 861.539 885.782C861.893 886.757 862.271 887.723 862.672 888.68C863.072 889.637 863.496 890.584 863.944 891.521C864.391 892.457 864.861 893.382 865.354 894.296C865.846 895.209 866.36 896.109 866.897 896.998C867.434 897.886 867.992 898.76 868.571 899.621C869.15 900.482 869.75 901.329 870.37 902.16C870.992 902.992 871.632 903.808 872.292 904.608C872.953 905.409 873.633 906.192 874.331 906.959C875.031 907.726 875.748 908.476 876.483 909.208C877.219 909.94 877.972 910.654 878.743 911.349C879.513 912.044 880.3 912.72 881.104 913.377C881.907 914.033 882.726 914.67 883.561 915.287C884.395 915.904 885.245 916.5 886.108 917.075C886.972 917.65 887.849 918.204 888.74 918.736C889.631 919.269 890.535 919.779 891.451 920.267C892.366 920.755 893.293 921.221 894.232 921.664C895.171 922.106 896.119 922.526 897.078 922.922C898.038 923.319 899.006 923.692 899.983 924.041C900.96 924.39 901.946 924.715 902.939 925.016C903.932 925.317 904.932 925.593 905.939 925.845C906.946 926.097 907.958 926.325 908.976 926.528C909.994 926.73 911.016 926.908 912.043 927.06C913.069 927.213 914.099 927.34 915.131 927.443C916.164 927.545 917.199 927.621 918.236 927.673C919.272 927.725 920.309 927.752 921.347 927.752C922.385 927.753 923.422 927.729 924.459 927.679C925.496 927.63 926.53 927.555 927.563 927.454C928.605 927.353 929.643 927.226 930.678 927.074C931.714 926.922 932.745 926.744 933.772 926.54C934.798 926.337 935.819 926.109 936.834 925.856C937.85 925.602 938.859 925.324 939.86 925.021C940.861 924.717 941.855 924.39 942.841 924.038C943.827 923.685 944.803 923.309 945.769 922.909C946.736 922.508 947.692 922.084 948.639 921.637C949.585 921.189 950.519 920.719 951.442 920.225C952.365 919.732 953.275 919.216 954.173 918.677C955.07 918.139 955.953 917.579 956.823 916.997C957.693 916.415 958.548 915.812 959.387 915.188C960.227 914.564 961.052 913.919 961.86 913.255C962.669 912.59 963.46 911.905 964.234 911.202C965.009 910.499 965.765 909.776 966.504 909.035C967.243 908.294 967.963 907.535 968.665 906.759C969.366 905.982 970.048 905.189 970.711 904.379C971.373 903.569 972.015 902.743 972.636 901.901C973.258 901.059 973.858 900.202 974.435 899.331C975.013 898.459 975.571 897.574 976.11 896.676C976.649 895.777 977.162 894.865 977.649 893.941C978.142 893.017 978.609 892.082 979.051 891.134C979.499 890.187 979.921 889.229 980.317 888.262C980.713 887.294 981.086 886.316 981.437 885.33C981.787 884.344 982.112 883.349 982.41 882.347C982.709 881.344 982.985 880.335 983.238 879.319C983.485 878.303 983.709 877.282 983.91 876.254C984.111 875.228 984.286 874.197 984.436 873.161C984.585 872.125 984.708 871.086 984.806 870.044C984.903 869.003 984.974 867.959 985.02 866.914C985.072 865.869 985.095 864.823 985.088 863.777C985.082 862.73 985.049 861.684 984.991 860.64C984.939 859.595 984.858 858.552 984.747 857.511C984.637 856.47 984.504 855.433 984.348 854.398C984.186 853.365 984.001 852.335 983.793 851.31C983.585 850.285 983.352 849.265 983.092 848.252C982.826 847.239 982.54 846.232 982.235 845.232C981.923 844.233 981.589 843.242 981.232 842.259C980.875 841.276 980.492 840.303 980.083 839.338C979.674 838.374 979.242 837.421 978.788 836.478C978.334 835.535 977.856 834.604 977.357 833.684C976.863 832.765 976.344 831.858 975.799 830.965C975.253 830.071 974.685 829.191 974.094 828.326C973.509 827.46 972.901 826.609 972.272 825.774C971.642 824.938 970.992 824.118 970.322 823.314C969.652 822.511 968.962 821.724 968.253 820.953C967.544 820.184 966.817 819.432 966.071 818.698C965.325 817.964 964.562 817.249 963.781 816.553C962.999 815.857 962.201 815.18 961.387 814.523C960.572 813.867 959.742 813.23 958.896 812.614C958.05 811.998 957.19 811.403 956.314 810.83C955.439 810.256 954.55 809.704 953.648 809.175C952.745 808.645 951.831 808.137 950.903 807.653C949.975 807.169 949.036 806.707 948.086 806.268C947.136 805.83 946.176 805.416 945.204 805.024C944.234 804.633 943.254 804.266 942.266 803.923C941.277 803.581 940.28 803.263 939.275 802.969C938.271 802.675 937.26 802.407 936.242 802.163C935.225 801.919 934.202 801.701 933.173 801.508C932.145 801.314 931.112 801.146 930.075 801.003C929.039 800.861 927.999 800.744 926.957 800.653C925.914 800.562 924.87 800.497 923.824 800.457C922.778 800.417 921.732 800.403 920.686 800.415C919.639 800.427 918.594 800.464 917.549 800.527ZM934.332 826.87C929.26 823.718 923.78 822.696 917.86 823.047C909.017 825.09 902.891 829.049 898.052 836.897C890.804 848.651 889.873 864.367 893.052 877.548C895.321 886.957 900.298 896.335 908.765 901.502C913.918 904.648 919.029 905.299 924.975 905.112C933.527 903.254 939.562 899.414 944.372 891.965C951.756 880.532 952.87 864.908 950.006 851.876C947.878 842.194 942.999 832.258 934.332 826.87Z" fill="#1B1B1B"/>
<path d="M840.215 747.504C840.763 747.407 841.889 747.641 842.459 747.705C844.733 753.814 841.935 789.504 841.783 798.865C841.179 840.261 841.713 881.643 843.385 923.01L811.293 922.988L810.745 922.781C809.944 921.686 809.852 921.583 809.834 920.212C809.647 906.701 810.934 892.86 811.179 879.298C811.966 835.929 812.317 792.355 807.709 749.174L840.215 747.504Z" fill="#1B1B1B"/>
<path d="M579.467 203.169L591.961 228.225L580.782 228.235L580.758 711.146L622.898 711.24L621.673 713.738L580.763 713.755C580.746 728.157 582.596 776.209 579.578 786.377L578.841 786.093C577.362 777.115 578.051 767.382 578.06 758.287L578.131 713.767C569.251 713.753 509.36 714.949 506.813 712.499C511.304 709.408 568.371 711.159 578.121 711.166L578.114 228.24L567.038 228.219L579.467 203.169Z" fill="#1B1B1B"/>
<path d="M1186.66 699.964C1191.63 702.388 1207.36 708.757 1210.09 712.44C1204.45 717.706 1193.7 721.435 1186.61 724.871L1186.65 713.772L820.745 713.781L700.379 713.783C679.71 713.783 658.652 714.649 638.041 713.6L638.092 711.234L1186.64 711.156L1186.66 699.964Z" fill="#1B1B1B"/>
<path d="M751.735 852.61L756.962 852.64C758.212 853.427 758.621 853.544 759.199 854.904C761.847 861.131 757.468 876.571 755.097 882.883C749.929 896.641 739.151 907.313 725.812 913.297C710.7 920.074 692.687 920.27 677.309 914.204C664.23 909.045 653.109 899.283 647.493 886.28C644.638 879.671 639.985 860.773 642.652 853.898C645.258 852.236 647.092 852.66 650.106 852.638C650.537 869.34 651.988 885.337 664.865 897.518C675.044 907.148 688.839 911.613 702.727 911.154C716.346 910.704 729.738 905.54 739.117 895.448C749.911 883.833 751.309 867.701 751.735 852.61Z" fill="url(#paint7_linear_7_2)"/>
<path d="M1250.31 843.277C1252.75 843.153 1256.2 842.492 1258.31 843.845C1257.57 847.176 1256.93 850.5 1256.58 853.9C1255.47 864.652 1257.65 876.072 1264.69 884.54C1270.6 891.651 1278.28 894.743 1287.39 895.569C1297.82 896.515 1309.68 892.882 1317.71 886.116C1320.66 883.631 1325.47 878.668 1325.83 874.78C1326.29 873.832 1326.55 872.935 1326.71 871.897C1327.87 863.915 1327.34 849.644 1322.54 843.072C1326.1 842.992 1329.66 843.205 1333.22 843.379C1333.5 844.167 1333.56 844.277 1333.76 845.226C1334.59 849.45 1335.04 856.185 1332.73 859.938C1335.48 864.325 1334.82 894.276 1333.78 900.326C1332.44 901.593 1331.61 901.359 1329.81 901.52C1324.55 898.259 1328.12 891.467 1325.61 886.376C1325.52 886.197 1325.41 886.026 1325.31 885.852C1324.25 889.559 1320.65 892.506 1317.65 894.76C1308.6 901.536 1295.46 903.915 1284.43 902.33C1273.37 900.745 1263.28 895.237 1256.67 886.144C1247.09 872.977 1247.9 858.514 1250.31 843.277Z" fill="url(#paint8_linear_7_2)"/>
<path d="M650.109 845.677C647.523 845.758 645.983 846.125 643.647 844.792C641.52 839.767 645.016 828.958 646.997 823.994C652.23 810.885 663.018 800.829 675.934 795.383C691.363 788.878 710.177 788.836 725.619 795.305C738.509 800.703 749.284 810.579 754.455 823.657C756.712 829.369 760.223 838.732 758.241 844.901C755.957 845.451 753.729 845.997 751.39 846.261C752.274 836.489 747.361 823.238 741.287 815.644C732.981 805.26 720.301 799.239 707.205 797.917C692.796 796.463 677.994 799.96 666.743 809.335C655.578 818.639 651.286 831.548 650.109 845.677Z" fill="#71B107"/>
<path d="M536.3 852.648C537.73 852.597 539.21 852.495 540.637 852.596C541.167 852.634 542.943 852.89 543.343 853.146C544.562 853.923 545.184 862.291 545.403 863.86C547.131 876.279 550.383 885.677 559.133 895.074C568.764 905.415 581.959 910.598 595.954 911.107C612.311 911.702 624.882 905.37 636.619 894.518C638.132 896.747 639.469 899.148 640.877 901.448C629.362 912.006 615.47 918.202 599.774 918.607C583.131 919.037 566.838 913.499 554.816 901.812C540.999 888.38 536.577 871.337 536.3 852.648Z" fill="url(#paint9_linear_7_2)"/>
<path d="M491.153 852.42C498.987 852.297 520.242 850.646 526.661 852.829C528.435 853.433 528.569 853.642 529.397 855.292L527.978 856.836C520.916 859.621 492.322 857.849 482.946 857.813C482.928 866.134 480.888 902.855 485.722 907.806C489.035 911.2 506.274 909.533 511.05 909.451C518.638 909.487 528.242 908.226 535.547 909.646C537.151 911.594 536.647 912.588 536.55 915.052C535.232 916.289 534.258 916.227 532.494 916.401C523.295 917.308 497.942 917.524 489.491 915.901C485.593 915.153 481.415 913.76 478.433 911.047C473.147 906.239 475.338 861.811 475.349 852.694L491.153 852.42Z" fill="#71B107"/>
<path d="M593.653 790.723C594.255 790.67 594.859 790.661 595.463 790.644C614.444 790.101 628.747 796.28 642.49 809.191C640.66 810.835 638.601 812.211 636.603 813.641C628.291 805.801 619.204 800.155 607.756 798.284C592.247 795.75 577.625 799.338 564.892 808.371C559.829 812.527 555.35 817.495 552.137 823.218C548.799 829.166 546.359 843.295 540.766 846.589L539.284 846.132C538.418 844.676 537.993 843.575 537.829 841.868C536.875 831.939 545.115 818.556 551.279 811.22C562.391 797.996 576.785 792.306 593.653 790.723Z" fill="#71B107"/>
<path fill-rule="evenodd" clip-rule="evenodd" d="M1138.65 922.71C1139.96 922.686 1141.37 922.616 1142.83 922.544C1148.18 922.278 1154.21 921.979 1158.7 923.792C1165.3 926.464 1164.87 929.733 1164.41 933.329C1164.21 934.837 1164.01 936.403 1164.32 938.005C1164.53 939.135 1165.32 940.48 1166.1 941.807C1166.68 942.811 1167.26 943.805 1167.59 944.687C1168.56 947.37 1167.07 950.273 1165.8 952.752C1165.62 953.093 1165.45 953.426 1165.29 953.749C1158.96 958.194 1150.72 957.878 1143.04 957.583C1141.54 957.525 1140.07 957.469 1138.63 957.448L1138.65 922.71ZM1146.01 943.357C1146.65 943.336 1147.29 943.306 1147.93 943.276C1151.24 943.121 1154.63 942.963 1157.78 944.048C1159.45 945.735 1159.47 945.973 1159.67 947.893C1159.69 948.058 1159.71 948.236 1159.73 948.427C1159.37 948.504 1158.97 948.594 1158.54 948.691C1155.33 949.413 1150.58 950.483 1148.16 948.833C1146.76 947.878 1146.49 946.216 1146.23 944.577C1146.16 944.165 1146.09 943.755 1146.01 943.357ZM1149.52 930.655C1149.27 930.657 1149.03 930.659 1148.78 930.66L1147.04 931.205L1146.78 934.308C1149.24 935.77 1152.62 935.594 1155.45 935.447C1155.59 935.439 1155.74 935.431 1155.88 935.424L1156.7 932.787C1155.69 931.238 1155.63 931.224 1153.82 930.887C1152.41 930.626 1150.95 930.641 1149.52 930.655Z" fill="#548400"/>
<path fill-rule="evenodd" clip-rule="evenodd" d="M1183.1 922.48C1181.33 922.57 1179.67 922.655 1178.19 922.67C1178.17 924.428 1178.06 926.641 1177.93 929.106C1177.43 938.424 1176.75 951.346 1180.49 956.916C1182.31 957.768 1182.33 957.762 1184.01 957.212C1184.12 957.173 1184.25 957.132 1184.38 957.088C1186.95 953.907 1186.66 949.058 1186.4 944.826C1186.35 943.966 1186.3 943.132 1186.27 942.343L1200.53 957.167C1200.6 957.17 1200.67 957.173 1200.74 957.176C1202.85 957.259 1203.34 957.279 1205.37 956.197C1205.48 955.973 1205.59 955.768 1205.69 955.574C1206.26 954.509 1206.64 953.801 1206.27 952.381C1205.95 951.157 1205.04 950.124 1204.15 949.115C1202.68 947.454 1201.27 945.856 1202.64 943.572C1203.36 942.379 1204.23 941.404 1205.06 940.468C1206.91 938.387 1208.59 936.506 1208 932.871C1207.49 929.778 1205.71 926.549 1203.04 924.835C1198.18 921.713 1189.89 922.135 1183.1 922.48ZM1188.35 930.69C1187.62 930.727 1186.9 930.764 1186.22 930.778C1186.23 931.247 1186.22 931.682 1186.22 932.093C1186.2 934.258 1186.18 935.76 1187.55 937.935C1190.65 939.685 1195.5 938.634 1198.95 937.887C1199.07 937.862 1199.19 937.837 1199.3 937.812C1199.31 937.5 1199.32 937.214 1199.32 936.948C1199.38 934.959 1199.4 934.085 1198.2 932.025C1195.55 930.328 1191.72 930.521 1188.35 930.69Z" fill="#548400"/>
<path d="M1163.91 843.004C1166.25 842.919 1168.12 842.853 1170.37 843.619C1171.03 845.009 1168.77 860.426 1169.43 865.059C1170.78 874.681 1175.49 883.552 1183.38 889.375C1191.02 895.009 1201.06 897.21 1210.4 895.73C1217.21 894.652 1224.66 890.695 1228.78 885.1C1230.97 886.391 1232.92 887.763 1233.75 890.141L1231.94 891.56C1230.76 894.336 1226.58 896.802 1224.03 898.303C1215.01 903.596 1201.87 903.91 1192 901.169C1191.33 900.986 1190.66 900.787 1190 900.572C1189.34 900.356 1188.69 900.123 1188.05 899.875C1187.4 899.626 1186.75 899.361 1186.12 899.08C1185.48 898.798 1184.85 898.501 1184.24 898.188C1183.61 897.875 1183 897.547 1182.4 897.203C1181.79 896.859 1181.2 896.5 1180.62 896.126C1180.03 895.752 1179.46 895.363 1178.89 894.96C1178.33 894.557 1177.77 894.14 1177.23 893.709C1176.68 893.278 1176.15 892.833 1175.63 892.375C1175.1 891.917 1174.59 891.446 1174.1 890.962C1173.6 890.478 1173.11 889.982 1172.64 889.474C1172.17 888.965 1171.71 888.445 1171.26 887.913C1170.82 887.382 1170.39 886.839 1169.96 886.286C1169.55 885.732 1169.14 885.168 1168.75 884.594C1168.36 884.02 1167.98 883.437 1167.63 882.844C1167.26 882.251 1166.92 881.649 1166.58 881.038C1160.31 869.449 1160.09 855.405 1163.91 843.004Z" fill="url(#paint10_linear_7_2)"/>
<path d="M485.735 793.032C496.907 792.061 525.154 791.593 535.77 793.131C536.841 794.761 536.453 796.731 536.368 798.596C530.333 803.653 494.367 794.609 483.984 802.544C483.789 802.693 483.599 802.849 483.407 803.001C482.466 810.796 484.985 840.758 481.179 845.667C479.246 845.673 477.516 846.193 476.078 844.836C474.496 835.903 474.011 809.918 476.844 800.921C478.203 796.607 481.959 794.942 485.735 793.032Z" fill="#71B107"/>
<path d="M1284.5 814.964C1295.71 814.291 1307.08 815.587 1316.52 822.278C1320.21 824.896 1324.86 829.339 1325.61 833.952C1327.34 830.208 1326.77 826.78 1326.71 822.785C1326.67 820.115 1327.06 818.332 1328.96 816.383C1331.15 815.956 1331.07 815.917 1332.99 817.05C1333.61 818.218 1334.12 819.428 1334.33 820.74C1335.02 824.859 1334.34 834.341 1331.99 837.816C1328.38 837.678 1324.78 837.558 1321.17 837.456C1318.62 833.746 1315.87 830.383 1311.8 828.29C1311.6 827.957 1311.45 827.593 1311.2 827.292C1308.9 824.454 1302.29 822.56 1298.8 822.016C1289.43 820.553 1275.79 822.563 1268.42 829.027C1265.88 831.255 1264.09 834.688 1261.31 836.56C1259.16 838.016 1256.82 837.595 1254.44 837.057C1254.08 835.095 1255.36 832.911 1256.47 831.27C1263.22 821.271 1273.11 817.138 1284.5 814.964Z" fill="#71B107"/>
<path d="M1230.32 922.384C1232.46 922.096 1234.5 921.857 1236.41 923.103C1241.8 926.625 1245.6 940.57 1247.11 946.83C1247.78 949.649 1248.64 953.995 1246.82 956.489C1246.02 957.596 1245.65 957.37 1244.4 957.616C1241.55 956.391 1241.21 953.25 1239.34 951.027C1237.85 949.266 1236.51 949.7 1234.36 949.586C1232.11 949.542 1229.87 949.642 1227.61 949.735C1226.49 952.266 1225.09 955.298 1222.34 956.389C1220.31 957.195 1219.58 957.06 1217.72 956.085C1217.47 955.321 1217.28 954.816 1217.36 954.001C1217.89 948.107 1225.93 926.191 1230.32 922.384Z" fill="#548400"/>
<path d="M1270.38 922.404C1273.62 922.127 1278.36 922.017 1281.17 923.909C1283.24 925.296 1284.01 926.786 1284.52 929.108C1280.86 934.17 1272.04 928.096 1267.31 931.879C1269.48 936.108 1279.77 936.145 1284 938.858C1285.79 940.014 1287.02 941.594 1287.27 943.752C1287.62 946.694 1286.22 950.533 1284.36 952.801C1281.17 956.689 1277.51 957.303 1272.83 957.734C1271.61 957.743 1270.39 957.635 1269.17 957.514C1266.24 957.223 1263.01 956.612 1261.22 953.995C1260.01 952.243 1259.95 951.313 1260.31 949.307C1265.39 946.297 1272.01 951.871 1276.95 948.447C1278.15 947.62 1277.88 947.661 1278.14 946.414C1275.57 943.751 1270.49 942.817 1267.08 941.323C1263.87 939.913 1260.24 938.166 1259.07 934.561C1258.31 932.227 1259.07 929.74 1260.28 927.697C1262.33 924.207 1266.72 923.294 1270.38 922.404Z" fill="#548400"/>
<path d="M1200.1 814.81C1201.43 814.727 1202.77 814.677 1204.1 814.658C1215.95 814.525 1225.88 818.806 1234.26 827.042C1233.72 829.054 1230.5 830.666 1228.84 831.656C1228.04 830.748 1227.21 829.902 1226.28 829.108C1217.74 821.722 1207.33 821.095 1196.6 822.174C1186.21 824.62 1182.59 829.78 1174.64 836.049C1172.62 837.639 1171.26 837.727 1168.84 837.424L1167.94 835.995C1168.24 833.626 1169.42 832.063 1170.84 830.223C1178.47 820.344 1188.07 816.472 1200.1 814.81Z" fill="#71B107"/>
<path d="M1138.76 843.026C1141.18 843.028 1143.56 842.691 1145.59 844.172C1147.46 853.297 1145.98 889.429 1145.96 901.314C1143.48 901.378 1141.4 901.293 1139 900.637C1137.1 885.952 1138.54 858.594 1138.76 843.026Z" fill="#71B107"/>
<path d="M1317.62 923.231C1318.96 923.04 1320.32 922.979 1321.66 922.872C1323.43 924.079 1323.91 924.743 1324.5 926.828C1326 932.134 1325.94 944.458 1323.42 949.353C1328.57 949.25 1336.13 948.371 1340.86 950.47C1342.41 951.158 1342.49 951.611 1343.09 953.079C1342.21 954.887 1341.3 955.675 1339.71 956.869C1335.32 958.782 1321.01 957.531 1315.57 957.503C1319.73 947.256 1314.29 933.905 1317.62 923.231Z" fill="#548400"/>
<path d="M769.408 838.452L770.806 835.477C775.036 833.794 781.38 834.065 785.932 834.114C791.972 834.18 798.695 833.326 803.104 837.852L802.654 842.887C798.646 845.423 778.995 844.513 774.383 843.285C771.778 842.592 770.897 841.151 769.64 838.899C769.558 838.752 769.485 838.601 769.408 838.452Z" fill="#71B107"/>
<path d="M769.408 838.452L770.806 835.477C775.036 833.794 781.38 834.065 785.932 834.114C791.972 834.18 798.695 833.326 803.104 837.852C792.142 839.181 780.491 838.25 769.408 838.452Z" fill="#71B107"/>
<path d="M1297.77 923.231C1298.88 923.021 1300.16 922.693 1301.29 922.739C1302.43 922.787 1303.25 923.426 1303.87 924.326C1307.36 929.315 1306.07 947.325 1305.03 953.212C1304.62 955.511 1304.02 955.586 1302.18 956.892C1302.08 956.941 1301.99 957.02 1301.89 957.041C1300 957.403 1299.79 957.173 1298.32 956.09C1295.37 949.438 1296.44 930.512 1297.77 923.231Z" fill="#548400"/>
<path d="M1138.56 816.139C1138.75 816.133 1138.94 816.125 1139.13 816.124C1141.96 816.103 1143.28 815.819 1145.34 817.837C1147.3 823.888 1145.68 831.005 1145 837.257C1143.49 837.458 1142.02 837.408 1140.5 837.38C1137 833.823 1138.53 821.38 1138.56 816.139Z" fill="#71B107"/>
<path d="M1139.62 787.541C1139.7 787.497 1139.78 787.454 1139.85 787.414C1139.93 787.373 1140.01 787.335 1140.1 787.298C1140.18 787.262 1140.26 787.228 1140.34 787.195C1140.43 787.163 1140.51 787.132 1140.59 787.104C1140.68 787.076 1140.76 787.05 1140.85 787.026C1140.93 787.002 1141.02 786.98 1141.1 786.96C1141.19 786.94 1141.28 786.923 1141.36 786.907C1141.46 786.891 1141.54 786.878 1141.63 786.866C1141.72 786.855 1141.81 786.846 1141.9 786.839C1141.98 786.832 1142.07 786.828 1142.16 786.825C1142.25 786.823 1142.34 786.822 1142.43 786.824C1142.52 786.826 1142.61 786.83 1142.7 786.837C1142.78 786.843 1142.87 786.851 1142.96 786.862C1143.05 786.873 1143.14 786.885 1143.22 786.9C1143.32 786.915 1143.4 786.932 1143.49 786.952C1143.57 786.971 1143.66 786.993 1143.74 787.016C1143.83 787.04 1143.92 787.066 1144 787.093C1144.09 787.121 1144.17 787.151 1144.25 787.182C1144.33 787.214 1144.42 787.248 1144.5 787.285C1144.58 787.32 1144.66 787.358 1144.74 787.398C1144.82 787.438 1144.9 787.48 1144.98 787.523C1145.05 787.567 1145.13 787.613 1145.2 787.66C1145.28 787.708 1145.35 787.757 1145.42 787.808C1145.5 787.86 1145.57 787.912 1145.64 787.967C1145.71 788.022 1145.78 788.079 1145.84 788.136C1145.91 788.195 1145.98 788.254 1146.04 788.315C1146.1 788.377 1146.17 788.44 1146.23 788.504C1146.29 788.569 1146.35 788.634 1146.41 788.702C1146.47 788.769 1146.52 788.838 1146.57 788.908C1146.63 788.978 1146.69 789.05 1146.74 789.122C1146.79 789.195 1146.84 789.269 1146.89 789.344C1146.93 789.42 1146.98 789.496 1147.02 789.573C1147.07 789.65 1147.11 789.729 1147.15 789.809C1147.19 789.888 1147.23 789.968 1147.27 790.049C1147.3 790.131 1147.33 790.213 1147.36 790.296C1147.39 790.379 1147.42 790.462 1147.45 790.546C1147.48 790.631 1147.5 790.717 1147.53 790.802C1147.55 790.888 1147.58 790.974 1147.6 791.06C1147.62 791.147 1147.63 791.235 1147.64 791.322C1147.66 791.41 1147.67 791.498 1147.68 791.586C1147.69 791.674 1147.7 791.763 1147.7 791.852C1147.71 791.94 1147.72 792.029 1147.72 792.117C1147.72 792.206 1147.72 792.295 1147.71 792.384C1147.71 792.473 1147.71 792.562 1147.7 792.65C1147.7 792.739 1147.69 792.827 1147.67 792.915C1147.66 793.003 1147.65 793.091 1147.64 793.178C1147.62 793.266 1147.61 793.353 1147.59 793.439C1147.57 793.526 1147.54 793.613 1147.52 793.698C1147.49 793.783 1147.47 793.868 1147.44 793.952C1147.41 794.037 1147.38 794.12 1147.34 794.202C1147.31 794.285 1147.28 794.368 1147.25 794.449C1147.21 794.53 1147.17 794.61 1147.13 794.688C1147.09 794.767 1147.05 794.845 1147 794.923C1146.96 795 1146.91 795.076 1146.87 795.15C1146.81 795.225 1146.76 795.299 1146.71 795.371C1146.66 795.443 1146.61 795.514 1146.55 795.584C1146.5 795.654 1146.44 795.722 1146.38 795.789C1146.32 795.856 1146.26 795.921 1146.2 795.985C1146.14 796.049 1146.07 796.111 1146.01 796.172C1145.94 796.233 1145.88 796.292 1145.81 796.35C1145.74 796.407 1145.67 796.463 1145.61 796.517C1145.54 796.571 1145.46 796.623 1145.39 796.674C1145.31 796.724 1145.24 796.773 1145.17 796.82C1145.09 796.867 1145.02 796.912 1144.94 796.955C1144.86 796.998 1144.78 797.039 1144.7 797.078C1144.63 797.117 1144.55 797.154 1144.46 797.189C1144.38 797.224 1144.3 797.257 1144.22 797.288C1144.14 797.319 1144.06 797.348 1143.97 797.375C1143.89 797.402 1143.81 797.427 1143.72 797.45C1143.63 797.472 1143.54 797.493 1143.46 797.512C1143.37 797.531 1143.29 797.547 1143.2 797.561C1143.11 797.576 1143.03 797.588 1142.94 797.598C1142.85 797.609 1142.76 797.617 1142.68 797.623C1142.59 797.629 1142.5 797.632 1142.42 797.633C1142.32 797.635 1142.23 797.635 1142.14 797.633C1142.06 797.63 1141.97 797.625 1141.88 797.618C1141.8 797.611 1141.71 797.602 1141.62 797.591C1141.53 797.579 1141.45 797.565 1141.36 797.55C1141.27 797.534 1141.19 797.517 1141.1 797.497C1141.02 797.478 1140.93 797.456 1140.85 797.432C1140.76 797.408 1140.68 797.382 1140.59 797.354C1140.51 797.326 1140.43 797.295 1140.34 797.264C1140.26 797.232 1140.18 797.198 1140.1 797.161C1140.02 797.126 1139.94 797.088 1139.86 797.048C1139.79 797.007 1139.71 796.965 1139.63 796.922C1139.55 796.879 1139.48 796.833 1139.41 796.786C1139.33 796.738 1139.25 796.689 1139.18 796.638C1139.11 796.587 1139.04 796.535 1138.97 796.48C1138.9 796.426 1138.84 796.369 1138.77 796.312C1138.7 796.254 1138.64 796.195 1138.58 796.134C1138.51 796.073 1138.45 796.01 1138.38 795.947C1138.33 795.882 1138.27 795.817 1138.21 795.75C1138.15 795.683 1138.1 795.615 1138.04 795.546C1137.99 795.476 1137.94 795.405 1137.89 795.333C1137.84 795.261 1137.79 795.188 1137.74 795.113C1137.7 795.039 1137.65 794.963 1137.61 794.887C1137.56 794.81 1137.52 794.733 1137.48 794.654C1137.44 794.575 1137.4 794.495 1137.37 794.415C1137.33 794.334 1137.3 794.253 1137.26 794.17C1137.23 794.088 1137.2 794.006 1137.18 793.922C1137.15 793.838 1137.13 793.754 1137.1 793.669C1137.08 793.584 1137.06 793.499 1137.04 793.413C1137.02 793.327 1137 793.241 1136.98 793.154C1136.97 793.067 1136.96 792.98 1136.94 792.892C1136.94 792.805 1136.93 792.718 1136.92 792.629C1136.92 792.542 1136.91 792.454 1136.9 792.366C1136.9 792.278 1136.9 792.19 1136.9 792.102C1136.91 792.014 1136.92 791.926 1136.92 791.838C1136.93 791.75 1136.94 791.663 1136.94 791.575C1136.96 791.488 1136.97 791.4 1136.98 791.313C1137 791.227 1137.02 791.141 1137.03 791.055C1137.05 790.969 1137.07 790.884 1137.1 790.799C1137.13 790.714 1137.15 790.629 1137.18 790.545C1137.2 790.462 1137.23 790.379 1137.26 790.296C1137.3 790.215 1137.33 790.133 1137.36 790.052C1137.4 789.971 1137.44 789.892 1137.48 789.813C1137.52 789.734 1137.56 789.656 1137.6 789.58C1137.64 789.503 1137.69 789.428 1137.73 789.353C1137.78 789.278 1137.83 789.205 1137.88 789.133C1137.93 789.06 1137.98 788.989 1138.03 788.92C1138.09 788.85 1138.15 788.782 1138.21 788.716C1138.26 788.648 1138.32 788.582 1138.38 788.519C1138.44 788.455 1138.5 788.392 1138.57 788.331C1138.63 788.27 1138.69 788.211 1138.76 788.153C1138.83 788.095 1138.9 788.039 1138.97 787.985C1139.03 787.93 1139.1 787.877 1139.17 787.826C1139.24 787.775 1139.32 787.725 1139.4 787.678C1139.47 787.631 1139.54 787.585 1139.62 787.541Z" fill="#71B107"/>
<defs>
<linearGradient id="paint0_linear_7_2" x1="676.195" y1="572.739" x2="767.356" y2="580.929" gradientUnits="userSpaceOnUse">
<stop stop-color="#54B51A"/>
<stop offset="1" stop-color="#93D84D"/>
</linearGradient>
<linearGradient id="paint1_linear_7_2" x1="790.196" y1="548.915" x2="809.368" y2="601.144" gradientUnits="userSpaceOnUse">
<stop stop-color="#A4E631"/>
<stop offset="1" stop-color="#D7F69E"/>
</linearGradient>
<linearGradient id="paint2_linear_7_2" x1="761.41" y1="599.265" x2="810.906" y2="572.984" gradientUnits="userSpaceOnUse">
<stop stop-color="#29910D"/>
<stop offset="1" stop-color="#93D551"/>
</linearGradient>
<linearGradient id="paint3_linear_7_2" x1="557.101" y1="650.981" x2="792.695" y2="544.756" gradientUnits="userSpaceOnUse">
<stop stop-color="#1A580C"/>
<stop offset="1" stop-color="#5B8751"/>
</linearGradient>
<linearGradient id="paint4_linear_7_2" x1="678.521" y1="625.199" x2="672.955" y2="519.586" gradientUnits="userSpaceOnUse">
<stop stop-color="#59B71B"/>
<stop offset="1" stop-color="#A8E35F"/>
</linearGradient>
<linearGradient id="paint5_linear_7_2" x1="756.51" y1="485.551" x2="861.548" y2="430.379" gradientUnits="userSpaceOnUse">
<stop stop-color="#648D5F"/>
<stop offset="1" stop-color="#9FC372"/>
</linearGradient>
<linearGradient id="paint6_linear_7_2" x1="644.867" y1="450.663" x2="754.914" y2="454.428" gradientUnits="userSpaceOnUse">
<stop stop-color="#98D561"/>
<stop offset="1" stop-color="#DCFDAA"/>
</linearGradient>
<linearGradient id="paint7_linear_7_2" x1="699.61" y1="916.238" x2="700.199" y2="853.989" gradientUnits="userSpaceOnUse">
<stop stop-color="#67A101"/>
<stop offset="1" stop-color="#7BBF05"/>
</linearGradient>
<linearGradient id="paint8_linear_7_2" x1="1290.43" y1="900.44" x2="1291.21" y2="843.984" gradientUnits="userSpaceOnUse">
<stop stop-color="#68A201"/>
<stop offset="1" stop-color="#7BBF04"/>
</linearGradient>
<linearGradient id="paint9_linear_7_2" x1="587.37" y1="916.148" x2="587.871" y2="854.901" gradientUnits="userSpaceOnUse">
<stop stop-color="#67A200"/>
<stop offset="1" stop-color="#7BBF05"/>
</linearGradient>
<linearGradient id="paint10_linear_7_2" x1="1196.87" y1="900.34" x2="1197.17" y2="844.689" gradientUnits="userSpaceOnUse">
<stop stop-color="#67A201"/>
<stop offset="1" stop-color="#7BBF03"/>
</linearGradient>
</defs>
</svg>
